<?xml version="1.0" encoding="UTF-8" standalone="no"?>
<svg
   width="1200"
   zoomAndPan="magnify"
   viewBox="0 0 900 468"
   height="624"
   preserveAspectRatio="xMidYMid"
   version="1.0"
   id="svg208"
   sodipodi:docname="inverted_guh_logo.svg"
   inkscape:export-filename="logo_transparent_inverted.svg"
   inkscape:export-xdpi="96"
   inkscape:export-ydpi="96"
   inkscape:version="1.2 (dc2aedaf03, 2022-05-15)"
   xmlns:inkscape="http://www.inkscape.org/namespaces/inkscape"
   xmlns:sodipodi="http://sodipodi.sourceforge.net/DTD/sodipodi-0.dtd"
   xmlns="http://www.w3.org/2000/svg"
   xmlns:svg="http://www.w3.org/2000/svg">
  <sodipodi:namedview
     id="namedview210"
     pagecolor="#ffffff"
     bordercolor="#000000"
     borderopacity="0.25"
     inkscape:showpageshadow="2"
     inkscape:pageopacity="0.0"
     inkscape:pagecheckerboard="0"
     inkscape:deskcolor="#d1d1d1"
     showgrid="false"
     inkscape:zoom="1.0808333"
     inkscape:cx="599.53739"
     inkscape:cy="312.25906"
     inkscape:window-width="1920"
     inkscape:window-height="991"
     inkscape:window-x="-9"
     inkscape:window-y="-9"
     inkscape:window-maximized="1"
     inkscape:current-layer="g1426" />
  <defs
     id="defs28">
    <clipPath
       id="38dbaf5151">
      <path
         d="m 280.57422,142.73828 h 13.63281 v 15.86328 h -13.63281 z m 0,0"
         clip-rule="nonzero"
         id="path4" />
    </clipPath>
    <clipPath
       id="0d8d454e40">
      <path
         d="m 193.73047,134.07031 h 81.60937 v 101.25 h -81.60937 z m 0,0"
         clip-rule="nonzero"
         id="path7" />
    </clipPath>
    <clipPath
       id="8189ec933a">
      <path
         d="m 236.75391,167.83203 h 36.75 v 24.75 h -36.75 z m 0,0"
         clip-rule="nonzero"
         id="path10" />
    </clipPath>
    <clipPath
       id="52f9b72d4c">
      <path
         d="m 220,157 h 2.64453 v 3 H 220 Z m 0,0"
         clip-rule="nonzero"
         id="path13" />
    </clipPath>
    <clipPath
       id="199025995f">
      <path
         d="M 197.14453,142 H 209 v 23 h -11.85547 z m 0,0"
         clip-rule="nonzero"
         id="path16" />
    </clipPath>
    <clipPath
       id="137345b198">
      <path
         d="m 220,146 h 2.64453 v 3 H 220 Z m 0,0"
         clip-rule="nonzero"
         id="path19" />
    </clipPath>
    <clipPath
       id="9a2a250da5">
      <path
         d="m 220,151 h 2.64453 v 4 H 220 Z m 0,0"
         clip-rule="nonzero"
         id="path22" />
    </clipPath>
    <clipPath
       id="dd978cd11a">
      <path
         d="m 209,138.3125 h 2 v 30 h -2 z m 0,0"
         clip-rule="nonzero"
         id="path25" />
    </clipPath>
    <rect
       x="13.432836"
       y="170.73872"
       width="648.66943"
       height="133.80923"
       id="rect3181" />
  </defs>
  <g
     id="g893"
     inkscape:label="Logo"
     transform="matrix(7.8809486,0,0,7.8809486,-1517.7053,-1050.5743)"
     style="display:none;stroke-width:0.126889">
    <rect
       style="display:none;fill:#ffb000;fill-opacity:1;stroke-width:3.75;stroke-linecap:square;stroke-linejoin:round;paint-order:markers fill stroke"
       id="rect1739"
       width="810"
       height="810"
       x="0"
       y="0"
       ry="0"
       transform="matrix(0.12688828,0,0,0.12688828,192.57901,133.30556)" />
    <path
       fill="#ffb000"
       d="m 231.53906,210.83203 -6.7539,3.90234 -6.75782,-3.90234 v -7.79687 l 6.75782,-3.90235 6.7539,3.90235 v 7.79687"
       fill-opacity="1"
       fill-rule="nonzero"
       id="path30"
       style="fill:#000000;fill-opacity:1;stroke-width:0.63939" />
    <g
       clip-path="url(#38dbaf5151)"
       id="g34"
       style="fill:#000000;fill-opacity:1;stroke-width:0.126889">
      <path
         fill="#ffb000"
         d="m 294.20703,154.54297 -6.75781,3.89844 -6.75391,-3.89844 v -7.80078 l 6.75391,-3.90235 6.75781,3.90235 v 7.80078"
         fill-opacity="1"
         fill-rule="nonzero"
         id="path32"
         style="fill:#000000;fill-opacity:1;stroke-width:0.63939" />
    </g>
    <path
       fill="#ffb000"
       d="m 285.12109,202.86328 -4.42578,2.55469 -4.42578,-2.55469 v -5.10937 l 4.42578,-2.5586 4.42578,2.5586 v 5.10937"
       fill-opacity="1"
       fill-rule="nonzero"
       id="path36"
       style="fill:#000000;fill-opacity:1;stroke-width:0.63939" />
    <g
       clip-path="url(#0d8d454e40)"
       id="g40"
       style="fill:#000000;fill-opacity:1;stroke-width:0.126889">
      <path
         fill="#ffb000"
         d="m 275.28125,190.72656 v -22.92578 l -19.85156,-11.46094 -13.76563,7.94532 c -3.02734,1.75 -6.75781,1.75 -9.78906,0 l -0.0195,-0.0117 c -3.02735,-1.7461 -4.89063,-4.97657 -4.89063,-8.47657 v -12.13281 l -16.61718,-9.59375 -16.61719,9.59375 v 19.1875 l 16.61719,9.59375 10.54687,-6.08984 c 3.02734,-1.7461 6.75781,-1.7461 9.78516,0 3.03125,1.75 4.89453,4.98047 4.89453,8.47656 v 15.89453 l 14.5039,8.3711 c 2.57032,1.48437 4.15625,4.22656 4.15625,7.19921 0,2.96875 -1.58593,5.71094 -4.15625,7.19922 l -5.4414,3.14063 v 12.45703 l 10.79297,6.23047 10.78906,-6.23047 v -12.45703 l -5.44141,-3.14063 c -2.57031,-1.48437 -4.15625,-4.23047 -4.15625,-7.19922 0,-2.97265 1.58594,-5.71484 4.15625,-7.19921 l 14.50391,-8.3711"
         fill-opacity="1"
         fill-rule="nonzero"
         id="path38"
         style="fill:#000000;fill-opacity:1;stroke-width:0.63939" />
    </g>
    <g
       clip-path="url(#8189ec933a)"
       id="g44"
       style="fill:#ffb000;fill-opacity:1;stroke-width:0.126889">
      <path
         fill="#000000"
         d="m 253.23437,190.19141 h 3.78125 c 0.3125,-0.3711 0.58204,-0.7461 0.81641,-1.125 0.14063,-0.23047 0.26953,-0.46094 0.38281,-0.69141 h -6.17968 c 0.11328,0.23047 0.24218,0.46094 0.38281,0.69141 0.23437,0.3789 0.50781,0.7539 0.8164,1.125 z m 4.03125,0.40625 v 0.0469 h -0.043 c -0.54688,0.62891 -1.19532,1.24219 -1.96094,1.83203 l -0.13672,0.10938 -0.13672,-0.10938 c -1.29687,-1.0039 -2.27344,-2.07031 -2.95312,-3.17187 -0.96094,-1.55469 -1.32813,-3.16797 -1.1875,-4.75391 0.14453,-1.57812 0.79687,-3.12109 1.8789,-4.53906 0.56641,-0.74219 1.25,-1.44922 2.03906,-2.10547 0,0 0,0 0,-0.004 -0.42578,-0.32812 -0.88281,-0.64453 -1.36328,-0.94922 -0.12109,-0.0742 -0.24218,-0.14843 -0.36328,-0.22265 -0.29297,0.95703 -0.73047,1.83984 -1.26953,2.64062 -0.77344,1.14453 -1.75391,2.11328 -2.79297,2.85547 -1.04297,0.74219 -2.14844,1.26172 -3.16797,1.50781 -1.67187,0.40625 -3.125,0.0937 -3.75781,-1.125 -0.17969,-0.34375 -0.23437,-0.67187 -0.1875,-0.98828 0.0547,-0.39062 0.26172,-0.7539 0.57813,-1.07812 0.14062,-0.13672 0.29687,-0.26953 0.47265,-0.39844 -1.14062,-0.0586 -2.27734,-0.23437 -3.24609,-0.55469 -1.1211,-0.37109 -2.03125,-0.9375 -2.49219,-1.74218 -0.30078,-0.53125 -0.40625,-1.16016 -0.24609,-1.89454 0.0781,-0.35546 0.20703,-0.67578 0.38672,-0.96093 0.63281,-1.02344 1.85937,-1.625 3.42968,-1.85547 1.53125,-0.21875 3.39844,-0.0898 5.36328,0.34765 2.20704,0.48829 4.53125,1.36329 6.64454,2.55469 0.52343,-2.28515 0.14843,-4.96484 -1.8086,-7.82422 -0.0664,-0.0977 -0.0469,-0.22656 0.0508,-0.29297 l 0.0195,-0.0156 c 0.0977,-0.0703 0.23047,-0.0469 0.29688,0.0508 0.74219,1.08594 1.26953,2.14453 1.60937,3.17188 0.11329,-0.32032 0.29297,-0.60547 0.52735,-0.83985 0.40625,-0.41015 0.96484,-0.66406 1.58594,-0.66406 0.61718,0 1.17968,0.25391 1.58203,0.66406 0.30859,0.3086 0.52734,0.70703 0.61328,1.15235 0.33594,-1.125 0.88672,-2.28907 1.70703,-3.48438 0.0664,-0.0977 0.19922,-0.12109 0.29687,-0.0508 l 0.0234,0.0156 c 0.0937,0.0664 0.11328,0.19532 0.0508,0.29297 -1.95703,2.85938 -2.33593,5.53907 -1.80859,7.82422 2.10937,-1.1914 4.4375,-2.0664 6.64062,-2.55469 1.96485,-0.4375 3.83594,-0.5664 5.36719,-0.34765 1.57031,0.23047 2.79297,0.83203 3.42969,1.85547 0.17578,0.28515 0.30469,0.60547 0.38281,0.96093 0.16016,0.73438 0.0547,1.36329 -0.24609,1.89454 -0.46094,0.80468 -1.36719,1.37109 -2.49219,1.74218 -0.96875,0.32032 -2.10547,0.4961 -3.24219,0.55469 0.17188,0.12891 0.33203,0.26172 0.46875,0.39844 0.31641,0.32422 0.52735,0.6875 0.58203,1.07812 0.043,0.31641 -0.0117,0.64453 -0.1875,0.98828 -0.63671,1.21875 -2.08984,1.53125 -3.75781,1.125 -1.02344,-0.24609 -2.1289,-0.76562 -3.17187,-1.50781 -1.03907,-0.74219 -2.01953,-1.71094 -2.79297,-2.85547 -0.53906,-0.80078 -0.97656,-1.68359 -1.26563,-2.64062 -0.125,0.0742 -0.24609,0.14844 -0.36718,0.22265 -0.48047,0.30469 -0.9336,0.6211 -1.35938,0.94922 0,0.004 0,0.004 0,0.004 0.78906,0.66016 1.46875,1.36328 2.03516,2.10547 1.08593,1.41797 1.73828,2.96094 1.8789,4.53906 0.0352,0.39063 0.0391,0.77734 0.0117,1.16797 v 0.0391 h -0.004 c -0.0625,0.85938 -0.28516,1.72266 -0.67188,2.57422 v 0.0312 c 0,0.008 -0.008,0.0117 -0.0117,0.0117 -0.008,0 -0.0117,0.004 -0.0117,0.008 -0.14453,0.3086 -0.3125,0.61719 -0.5,0.92188 -0.26953,0.4375 -0.58593,0.86718 -0.94922,1.29297 z m -0.65234,0.0469 h -2.97656 c 0.43359,0.46484 0.92969,0.92188 1.48828,1.36719 0.5625,-0.44531 1.05469,-0.90235 1.48828,-1.36719 z m -3.21875,-17.21875 c 0.0781,1 -0.0117,1.95313 -0.23047,2.85156 0.16016,0.0937 0.31641,0.19141 0.47656,0.29297 0.52735,0.32813 1.02344,0.67578 1.48438,1.04297 0.46484,-0.36719 0.95703,-0.71484 1.48828,-1.04297 0.15625,-0.10156 0.31641,-0.19922 0.47656,-0.29297 -0.24218,-0.97265 -0.32812,-2.01953 -0.20703,-3.11328 -0.0781,0.11328 -0.16797,0.21875 -0.26562,0.31641 -0.40235,0.41015 -0.96485,0.66406 -1.58203,0.66406 -0.6211,0 -1.17969,-0.25391 -1.58594,-0.66406 -0.0195,-0.0195 -0.0391,-0.0352 -0.0547,-0.0547 z m -1.99609,5.69141 c 0.53515,-0.78907 0.96484,-1.66797 1.23828,-2.6211 -2.10156,-1.20312 -4.42578,-2.08203 -6.6211,-2.57031 -1.91406,-0.42578 -3.72656,-0.55078 -5.20703,-0.33984 -1.4414,0.21093 -2.55468,0.74218 -3.10937,1.64453 -0.15235,0.24609 -0.26172,0.51953 -0.32813,0.82031 -0.13672,0.61328 -0.0508,1.13281 0.19922,1.57031 0.39453,0.69922 1.21485,1.19922 2.23828,1.53907 1.05078,0.34765 2.3086,0.51562 3.54297,0.54687 0.0898,0.004 0.17969,0.004 0.26563,0.004 1.60156,-0.83985 3.9414,-1.26563 5.125,-1.09766 l 0.44922,0.0625 -0.32422,0.3241 c -0.71094,0.70703 -2.86328,1.16797 -5.14063,1.16406 -0.38281,0.21094 -0.71484,0.44531 -0.96094,0.69922 -0.2539,0.25781 -0.41796,0.53125 -0.45703,0.82031 -0.0312,0.22657 0.008,0.46094 0.14063,0.71485 0.52344,1.00781 1.78515,1.2539 3.2539,0.89453 0.96485,-0.23438 2.01954,-0.73047 3.01563,-1.4375 0.99609,-0.71094 1.9375,-1.64063 2.67969,-2.73828 z m -3.39063,-0.0859 c -0.90234,0.0195 -2.11328,0.25 -3.19531,0.64844 1.30859,-0.082 2.47656,-0.3125 3.19531,-0.64844 z m 9.16016,1.25781 c -0.5625,-0.73828 -1.2461,-1.4414 -2.04297,-2.09765 -0.79297,0.65625 -1.48047,1.35937 -2.04297,2.09765 -0.11719,0.15625 -0.23047,0.3125 -0.33984,0.47266 h 4.76562 c -0.10547,-0.16016 -0.21875,-0.31641 -0.33984,-0.47266 z m -4.71875,0.92578 c -0.41016,0.6836 -0.71875,1.38672 -0.91797,2.10547 h 7.19141 c -0.19922,-0.71875 -0.50782,-1.42187 -0.92188,-2.10547 z m -1.03125,2.5586 c -0.0547,0.27343 -0.0977,0.54687 -0.1211,0.82031 -0.0234,0.23437 -0.0312,0.47266 -0.0273,0.71094 h 7.71484 c 0,-0.23828 -0.008,-0.47657 -0.0273,-0.71094 -0.0273,-0.27344 -0.0664,-0.54688 -0.125,-0.82031 z m -0.12891,1.98437 c 0.0625,0.72266 0.23828,1.44531 0.53906,2.16406 h 6.59766 c 0.30078,-0.71875 0.47656,-1.4414 0.53516,-2.16406 z m 12.94922,-11.83203 c -2.19922,0.48828 -4.52344,1.36719 -6.62109,2.57031 0.27343,0.95313 0.70312,1.83203 1.23437,2.6211 0.74219,1.09765 1.6836,2.02734 2.6836,2.73828 0.99609,0.70703 2.04687,1.20312 3.01562,1.4375 1.46484,0.35937 2.73047,0.11328 3.25391,-0.89453 0.1289,-0.25391 0.17187,-0.48828 0.14062,-0.71485 -0.043,-0.28906 -0.20703,-0.5625 -0.45703,-0.82031 -0.25,-0.25391 -0.58203,-0.48828 -0.96484,-0.69922 -2.27735,0.004 -4.42969,-0.45703 -5.14063,-1.16406 l -0.32422,-0.32422 0.45313,-0.0625 c 1.18359,-0.16797 3.51953,0.25781 5.12109,1.09766 0.0899,0 0.17578,0 0.26563,-0.004 1.23828,-0.0312 2.49609,-0.19922 3.54687,-0.54687 1.01953,-0.33985 1.83985,-0.83985 2.23828,-1.53907 0.2461,-0.4375 0.33203,-0.95703 0.19922,-1.57031 -0.0664,-0.30078 -0.17969,-0.57422 -0.32812,-0.82031 -0.5586,-0.90235 -1.67188,-1.4336 -3.11328,-1.64453 -1.47657,-0.21094 -3.29297,-0.0859 -5.20313,0.33984 z m -1.99609,5.10547 c 0.71875,0.33594 1.88672,0.56641 3.19531,0.64844 -1.08203,-0.39844 -2.29297,-0.62891 -3.19531,-0.64844 z m -5.94141,-8.42188 c -0.32422,-0.32812 -0.77344,-0.52734 -1.26562,-0.52734 -0.4961,0 -0.94141,0.19922 -1.26563,0.52734 -0.32422,0.32813 -0.52734,0.77735 -0.52734,1.27735 0,0.49609 0.20312,0.94531 0.52734,1.27344 0.32422,0.32421 0.76953,0.52734 1.26563,0.52734 0.49218,0 0.9414,-0.20313 1.26562,-0.52734 0.32422,-0.32813 0.52344,-0.77735 0.52344,-1.27344 0,-0.5 -0.19922,-0.94922 -0.52344,-1.27735"
         fill-opacity="1"
         fill-rule="nonzero"
         id="path42"
         style="fill:#ffb000;fill-opacity:1;stroke-width:0.63939" />
    </g>
    <path
       fill="#000000"
       d="m 217.01953,161.19531 c -0.59375,0 -1.09766,0.48047 -1.09766,1.10938 0,0.59765 0.47657,1.10937 1.09766,1.10937 0.62109,0 1.09375,-0.48047 1.09375,-1.10937 -0.0273,-0.60157 -0.50391,-1.10938 -1.09375,-1.10938 z m 0,0"
       fill-opacity="1"
       fill-rule="nonzero"
       id="path46"
       style="fill:#ffb000;fill-opacity:1;stroke-width:0.63939" />
    <g
       clip-path="url(#52f9b72d4c)"
       id="g50"
       style="fill:#ffb000;fill-opacity:1;stroke-width:0.126889">
      <path
         fill="#000000"
         d="m 221.51953,157.39062 c -0.62109,0 -1.125,0.50782 -1.125,1.13672 0,0.62891 0.50391,1.14063 1.125,1.14063 0.62109,0 1.125,-0.51172 1.125,-1.14063 0,-0.6289 -0.50391,-1.13672 -1.125,-1.13672 z m 0,0"
         fill-opacity="1"
         fill-rule="nonzero"
         id="path48"
         style="fill:#ffb000;fill-opacity:1;stroke-width:0.63939" />
    </g>
    <path
       fill="#000000"
       d="m 217.01953,143.21484 c -0.59375,0 -1.09766,0.48047 -1.09766,1.10938 0,0.59765 0.47657,1.10937 1.09766,1.10937 0.58984,0 1.09375,-0.48047 1.09375,-1.08203 0,-0.6289 -0.50391,-1.13672 -1.09375,-1.13672 z m 0,0"
       fill-opacity="1"
       fill-rule="nonzero"
       id="path52"
       style="fill:#ffb000;fill-opacity:1;stroke-width:0.63939" />
    <g
       clip-path="url(#199025995f)"
       id="g56"
       style="fill:#ffb000;fill-opacity:1;stroke-width:0.126889">
      <path
         fill="#000000"
         d="m 205.88281,142.19531 c -1.45312,0 -2.69531,1.01953 -2.99219,2.45703 0,0.96094 0.29688,1.88672 0.85938,2.63672 0.50391,0.62891 1.18359,1.05078 1.98437,1.25781 0.17969,0.0312 0.26563,0.17969 0.26563,0.33204 -0.0273,0.17968 -0.17578,0.26953 -0.32422,0.26953 h -0.0898 c -0.80078,-0.21094 -1.53907,-0.66016 -2.10157,-1.25782 -0.5625,0.26954 -1.60156,0.92579 -1.6289,1.70704 0,0.17968 -0.11719,0.30078 -0.29688,0.30078 -0.14843,0 -0.29687,-0.15235 -0.29687,-0.30078 0.0586,-1.10938 1.24609,-1.85938 1.86719,-2.1875 -0.47266,-0.75 -0.74219,-1.58985 -0.76954,-2.48829 -1.57031,0 -2.84375,1.37891 -2.84375,3.08594 0,0.33203 0.0586,0.66016 0.14844,0.96094 0.0273,0.12109 0,0.26953 -0.12109,0.32812 -1.50781,0.92969 -2.39844,2.69922 -2.39844,4.61719 0,0.92578 0.20703,1.85547 0.65234,2.69531 0.0312,0.0586 0.0312,0.0898 0.0312,0.14844 v 0.0898 c 0,0.0625 0,0.12109 0,0.21093 0,2.48828 1.44922,4.55469 3.40625,5.06641 -0.0898,-1.01953 0.14844,-2.03906 0.64844,-2.90625 -0.88672,-0.36328 -1.6289,-1.05078 -2.04297,-1.91797 -0.0859,-0.15234 -0.0273,-0.33203 0.1211,-0.39062 0.14453,-0.0625 0.32422,-0.0312 0.38281,0.12109 0,0 0,0 0,0.0273 0.41406,0.75 1.06641,1.34766 1.86719,1.61719 l 0.0273,-0.0586 c 0.74219,-0.8086 1.75,-1.31641 2.84375,-1.46875 0.0898,-1.07813 0.76953,-2.00782 1.77734,-2.36719 0.14844,-0.0586 0.32813,0 0.38672,0.15234 0.0586,0.14844 0,0.32813 -0.14843,0.38672 -0.0312,0 -0.0312,0 -0.0586,0.0312 -0.0625,0.0312 -1.45312,0.53906 -1.36328,2.06641 0,0.17969 -0.11719,0.30078 -0.29687,0.30078 -0.0312,0 -1.66016,0.0898 -2.69532,1.28906 -0.67968,0.77735 -0.97656,1.85938 -0.88672,3.17578 0.0586,0 0.11719,0.0312 0.17579,0.0312 0.11718,0 0.20703,0.0586 0.26562,0.17969 0.83203,1.76563 2.90234,2.54688 4.67969,1.73828 1.24609,-0.57031 2.04297,-1.85937 2.04297,-3.23828 v -1.64844 c -1.65625,-0.35937 -2.69141,1.25782 -2.75391,1.34766 -0.0859,0.15234 -0.26562,0.17969 -0.41406,0.0898 -0.14844,-0.0898 -0.17578,-0.26953 -0.0898,-0.41797 0,-0.0312 1.2461,-1.97656 3.25782,-1.64843 v -5.96485 c -0.14453,-0.23828 -0.76953,-1.07812 -1.59766,-1.25781 -0.47266,-0.0898 -0.94922,0.0312 -1.33203,0.30078 -0.23828,0.30078 -1.53906,2.00781 -3.05078,2.2461 -0.11719,0.0312 -0.23828,0.0312 -0.35547,0.0312 -0.26563,0 -0.5625,-0.0586 -0.82813,-0.17969 -0.12109,0.6289 -0.65234,1.14062 -1.57031,1.52734 -0.0312,0 -0.0586,0.0312 -0.12109,0.0312 -0.17578,0 -0.29297,-0.12109 -0.29297,-0.30078 0,-0.11719 0.0586,-0.23828 0.17578,-0.26953 0.76953,-0.30078 1.18359,-0.6875 1.24609,-1.13672 0.0859,-0.75 -0.83203,-1.58984 -1.1875,-1.85937 -0.14843,-0.0898 -0.17578,-0.26954 -0.0859,-0.41797 0.0859,-0.15235 0.26562,-0.17969 0.41406,-0.0898 0,0 0.0273,0 0.0273,0.0273 0.0586,0.0312 1.09766,0.83984 1.36328,1.80078 0.32422,0.23828 0.71094,0.32812 1.125,0.26953 1.36329,-0.21094 2.69532,-2.03906 2.69532,-2.03906 0.0312,-0.0312 0.0586,-0.0586 0.0586,-0.0586 0.53516,-0.39062 1.21484,-0.57031 1.83594,-0.42187 0.5625,0.15234 1.09765,0.44922 1.48047,0.89844 v -4.70313 h -0.26563 c -1.98437,0 -2.78125,-1.76953 -2.78125,-1.76953 -0.0625,-0.14844 0,-0.32813 0.14453,-0.39063 0.14844,-0.0586 0.32813,0 0.38672,0.15235 0.47266,0.92969 1.45313,1.49609 2.48828,1.40625 v -1.13672 c 0,-1.73828 -1.36328,-3.11719 -3.05078,-3.11719 z m 0,0"
         fill-opacity="1"
         fill-rule="nonzero"
         id="path54"
         style="fill:#ffb000;fill-opacity:1;stroke-width:0.63939" />
    </g>
    <g
       clip-path="url(#137345b198)"
       id="g60"
       style="fill:#ffb000;fill-opacity:1;stroke-width:0.126889">
      <path
         fill="#000000"
         d="m 221.51953,146.69141 c -0.62109,0 -1.125,0.50781 -1.125,1.13671 0,0.62891 0.50391,1.14063 1.125,1.14063 0.62109,0 1.125,-0.51172 1.125,-1.14063 0,-0.6289 -0.50391,-1.13671 -1.125,-1.13671 z m 0,0"
         fill-opacity="1"
         fill-rule="nonzero"
         id="path58"
         style="fill:#ffb000;fill-opacity:1;stroke-width:0.63939" />
    </g>
    <g
       clip-path="url(#9a2a250da5)"
       id="g64"
       style="display:inline;fill:#ffb000;fill-opacity:1;stroke-width:0.126889">
      <path
         fill="#000000"
         d="m 221.51953,151.96484 c -0.62109,0 -1.125,0.50782 -1.125,1.14063 0,0.6289 0.50391,1.13672 1.125,1.13672 0.62109,0 1.125,-0.50782 1.125,-1.13672 0,-0.60156 -0.50391,-1.14063 -1.125,-1.14063 z m 0,0"
         fill-opacity="1"
         fill-rule="nonzero"
         id="path62"
         style="fill:#ffb000;fill-opacity:1;stroke-width:0.63939" />
    </g>
    <g
       clip-path="url(#dd978cd11a)"
       id="g68"
       style="display:inline;fill:#ffb000;fill-opacity:1;stroke-width:0.126889">
      <path
         fill="#000000"
         d="m 210.11719,168.29687 c -0.17578,0 -0.29688,-0.12109 -0.29688,-0.30078 v -29.36718 c 0,-0.17969 0.1211,-0.30079 0.29688,-0.30079 0.17968,0 0.29687,0.1211 0.29687,0.30079 v 29.36718 c 0,0.17969 -0.11719,0.30078 -0.29687,0.30078 z m 0,0"
         fill-opacity="1"
         fill-rule="nonzero"
         id="path66"
         style="fill:#ffb000;fill-opacity:1;stroke-width:0.63939" />
    </g>
    <path
       fill="#000000"
       d="m 213.96875,148.81641 h -2.96094 c -0.17969,0 -0.29687,-0.11719 -0.29687,-0.29688 0,-0.17969 0.11718,-0.30078 0.29687,-0.30078 h 2.8125 l 2.19141,-2.9375 c 0.0898,-0.11719 0.29687,-0.14844 0.41406,-0.0586 0.11719,0.0898 0.14844,0.30078 0.0586,0.41796 l -2.30859,3.0586 c -0.0312,0.0898 -0.11719,0.11719 -0.20703,0.11719 z m 0,0"
       fill-opacity="1"
       fill-rule="nonzero"
       id="path70"
       style="fill:#ffb000;fill-opacity:1;stroke-width:0.63939" />
    <path
       fill="#000000"
       d="m 216.27734,161.43359 c -0.0898,0 -0.17578,-0.0273 -0.23437,-0.11718 l -2.22266,-2.91016 h -2.8125 c -0.17969,0 -0.29687,-0.11719 -0.29687,-0.29688 0,-0.17968 0.11718,-0.30078 0.29687,-0.30078 h 2.96094 c 0.0898,0 0.17578,0.0312 0.23437,0.1211 l 2.3125,3.02734 c 0.0898,0.11719 0.0586,0.32813 -0.0586,0.41797 -0.0586,0.0312 -0.12109,0.0586 -0.17969,0.0586 z m 0,0"
       fill-opacity="1"
       fill-rule="nonzero"
       id="path72"
       style="fill:#ffb000;fill-opacity:1;stroke-width:0.63939" />
    <path
       fill="#000000"
       d="m 220.07031,153.43359 h -9.0625 c -0.17969,0 -0.29687,-0.12109 -0.29687,-0.30078 0,-0.17969 0.11718,-0.30078 0.29687,-0.30078 h 9.0625 c 0.17578,0 0.29688,0.12109 0.29688,0.30078 0,0.17969 -0.14844,0.30078 -0.29688,0.30078 z m 0,0"
       fill-opacity="1"
       fill-rule="nonzero"
       id="path74"
       style="fill:#ffb000;fill-opacity:1;stroke-width:0.63939" />
    <path
       fill="#000000"
       d="m 216.27734,151.03516 h -5.26953 c -0.17969,0 -0.29687,-0.1211 -0.29687,-0.30079 0,-0.17968 0.11718,-0.29687 0.29687,-0.29687 h 5.09375 l 2.04297,-2.78906 c 0.0586,-0.0898 0.14844,-0.11719 0.23828,-0.11719 h 1.6875 c 0.17578,0 0.29688,0.11719 0.29688,0.29687 0,0.17969 -0.1211,0.30079 -0.29688,0.30079 h -1.54297 l -2.01172,2.78515 c -0.0586,0.0937 -0.14843,0.1211 -0.23828,0.1211 z m 0,0"
       fill-opacity="1"
       fill-rule="nonzero"
       id="path76"
       style="fill:#ffb000;fill-opacity:1;stroke-width:0.63939" />
    <path
       fill="#000000"
       d="m 220.07031,158.82812 h -1.6875 c -0.0898,0 -0.17969,-0.0625 -0.23828,-0.12109 l -2.04297,-2.78516 h -5.09375 c -0.17969,0 -0.29687,-0.12109 -0.29687,-0.30078 0,-0.17968 0.11718,-0.30078 0.29687,-0.30078 H 216.25 c 0.0859,0 0.17578,0.0312 0.23437,0.1211 l 2.04297,2.78515 h 1.54297 c 0.17578,0 0.29688,0.1211 0.29688,0.30078 0,0.17969 -0.1211,0.30078 -0.29688,0.30078 z m 0,0"
       fill-opacity="1"
       fill-rule="nonzero"
       id="path78"
       style="fill:#ffb000;fill-opacity:1;stroke-width:0.63939" />
  </g>
  <g
     fill="#ffa800"
     fill-opacity="1"
     id="g94"
     style="display:none">
    <g
       transform="translate(129.55171,164.86714)"
       id="g92">
      <g
         id="g90">
        <path
           d="M 9.84375,-9.890625 H 3.5 v 3.15625 H 9.1875 V -4.96875 H 3.5 v 3.203125 h 6.546875 V 0 H 1.53125 v -11.65625 h 8.3125 z m 0,0"
           id="path88" />
      </g>
    </g>
  </g>
  <g
     fill="#ffa800"
     fill-opacity="1"
     id="g102"
     style="display:none">
    <g
       transform="translate(143.80765,164.86714)"
       id="g100">
      <g
         id="g98">
        <path
           d="m 9.046875,-2.625 h -5.875 L 2.0625,0 H 0.015625 L 5.15625,-11.65625 H 7.171875 L 12.265625,0 h -2.09375 z m -0.75,-1.75 -2.1875,-5.171875 L 3.90625,-4.375 Z m 0,0"
           id="path96" />
      </g>
    </g>
  </g>
  <g
     fill="#ffa800"
     fill-opacity="1"
     id="g110"
     style="display:none">
    <g
       transform="translate(159.42763,164.86714)"
       id="g108">
      <g
         id="g106">
        <path
           d="m 9.484375,-9.890625 h -3.6875 V 0 H 3.828125 V -9.890625 H 0.15625 v -1.765625 h 9.328125 z m 0,0"
           id="path104" />
      </g>
    </g>
  </g>
  <g
     fill="#000000"
     fill-opacity="1"
     id="g118"
     style="display:none">
    <g
       transform="translate(91.519581,165.69013)"
       id="g116">
      <g
         id="g114">
        <path
           d="m 14.46875,-8.71875 h 2.609375 v 6.546875 c -0.90625,0.6875 -1.984375,1.246094 -3.234375,1.671875 -1.242188,0.4179688 -2.460938,0.625 -3.65625,0.625 -2.617188,0 -4.824219,-0.863281 -6.625,-2.59375 -1.804688,-1.726562 -2.703125,-3.859375 -2.703125,-6.390625 0,-2.539063 0.910156,-4.664063 2.734375,-6.375 1.820312,-1.71875 4.078125,-2.578125 6.765625,-2.578125 1.25,0 2.476563,0.226562 3.6875,0.671875 1.207031,0.449219 2.253906,1.054687 3.140625,1.8125 L 15.484375,-13.125 c -1.449219,-1.351562 -3.15625,-2.03125 -5.125,-2.03125 -1.804687,0 -3.328125,0.609375 -4.578125,1.828125 -1.25,1.21875 -1.875,2.703125 -1.875,4.453125 0,1.78125 0.625,3.28125 1.875,4.5 1.257812,1.210938 2.796875,1.8125 4.609375,1.8125 1.363281,0 2.722656,-0.40625 4.078125,-1.21875 z m 0,0"
           id="path112" />
      </g>
    </g>
  </g>
  <g
     fill="#ffa800"
     fill-opacity="1"
     id="g142"
     style="display:none">
    <g
       transform="translate(115.35778,199.91666)"
       id="g140"
       style="display:inline">
      <g
         id="g138">
        <path
           d="m 10.921875,0 h -1.8125 L 3.28125,-7.84375 V 0 H 1.4375 V -10.9375 H 3.25 l 5.859375,7.859375 V -10.9375 h 1.8125 z m 0,0"
           id="path136" />
      </g>
    </g>
  </g>
  <g
     fill="#ffa800"
     fill-opacity="1"
     id="g150"
     style="display:none">
    <g
       transform="translate(130.87156,199.91666)"
       id="g148">
      <g
         id="g146">
        <path
           d="M 3.28125,0 H 1.4375 v -10.9375 h 1.84375 z m 0,0"
           id="path144" />
      </g>
    </g>
  </g>
  <g
     fill="#ffa800"
     fill-opacity="1"
     id="g158"
     style="display:none">
    <g
       transform="translate(113.43599,235.5599)"
       id="g156">
      <g
         id="g154">
        <path
           d="m 9.046875,-2.625 h -5.875 L 2.0625,0 H 0.015625 L 5.15625,-11.65625 H 7.171875 L 12.265625,0 h -2.09375 z m -0.75,-1.75 -2.1875,-5.171875 L 3.90625,-4.375 Z m 0,0"
           id="path152" />
      </g>
    </g>
  </g>
  <g
     fill="#ffa800"
     fill-opacity="1"
     id="g166"
     style="display:none">
    <g
       transform="translate(129.05597,235.5599)"
       id="g164">
      <g
         id="g162">
        <path
           d="m 6.6875,-11.703125 c 0.820312,0 1.625,0.164063 2.40625,0.484375 0.78125,0.3125 1.453125,0.75 2.015625,1.3125 l -1.140625,1.4375 c -0.429688,-0.457031 -0.929688,-0.816406 -1.5,-1.078125 -0.574219,-0.269531 -1.15625,-0.40625 -1.75,-0.40625 -1.167969,0 -2.152344,0.398437 -2.953125,1.1875 -0.804687,0.792969 -1.203125,1.761719 -1.203125,2.90625 0,1.15625 0.398438,2.132813 1.203125,2.921875 0.800781,0.792969 1.785156,1.1875 2.953125,1.1875 1.207031,0 2.289062,-0.457031 3.25,-1.375 L 11.125,-1.828125 C 10.53125,-1.242188 9.832031,-0.78125 9.03125,-0.4375 8.238281,-0.09375 7.4375,0.078125 6.625,0.078125 c -1.710938,0 -3.148438,-0.566406 -4.3125,-1.703125 -1.167969,-1.132812 -1.75,-2.539062 -1.75,-4.21875 0,-1.65625 0.585938,-3.046875 1.765625,-4.171875 1.1875,-1.125 2.640625,-1.6875 4.359375,-1.6875 z m 0,0"
           id="path160" />
      </g>
    </g>
  </g>
  <g
     fill="#ffa800"
     fill-opacity="1"
     id="g174"
     style="display:none"
     sodipodi:insensitive="true">
    <g
       transform="translate(143.99392,235.5599)"
       id="g172">
      <g
         id="g170">
        <path
           d="M 9.296875,0 5.46875,-5.140625 3.5,-2.96875 V 0 H 1.53125 V -11.65625 H 3.5 V -5.625 l 5.546875,-6.03125 h 2.3125 l -4.5,4.984375 L 11.671875,0 Z m 0,0"
           id="path168" />
      </g>
    </g>
  </g>
  <g
     fill="#ffa800"
     fill-opacity="1"
     id="g182"
     sodipodi:insensitive="true"
     style="display:none">
    <g
       transform="translate(172.46159,235.5599)"
       id="g180">
      <g
         id="g178">
        <path
           d="m 4.796875,-11.734375 c 1.101563,0 1.992187,0.265625 2.671875,0.796875 C 8.15625,-10.40625 8.5,-9.691406 8.5,-8.796875 8.5,-7.773438 7.789062,-6.5 6.375,-4.96875 l -3.03125,3.203125 h 5.6875 V 0 H 0.75 v -1.4375 l 4.296875,-4.609375 c 0.9375,-0.957031 1.40625,-1.78125 1.40625,-2.46875 0,-0.46875 -0.171875,-0.832031 -0.515625,-1.09375 -0.34375,-0.269531 -0.820312,-0.40625 -1.421875,-0.40625 -1.0625,0 -2.125,0.492187 -3.1875,1.46875 L 0.546875,-10.0625 c 1.363281,-1.113281 2.78125,-1.671875 4.25,-1.671875 z m 0,0"
           id="path176" />
      </g>
    </g>
  </g>
  <g
     fill="#ffa800"
     fill-opacity="1"
     id="g190"
     style="display:none"
     sodipodi:insensitive="true">
    <g
       transform="translate(185.58636,235.5599)"
       id="g188">
      <g
         id="g186">
        <path
           d="m 5.75,-11.703125 c 1.59375,0 2.816406,0.511719 3.671875,1.53125 0.851563,1.011719 1.28125,2.460937 1.28125,4.34375 0,1.886719 -0.429687,3.339844 -1.28125,4.359375 C 8.566406,-0.457031 7.34375,0.046875 5.75,0.046875 c -1.59375,0 -2.820312,-0.503906 -3.671875,-1.515625 -0.855469,-1.019531 -1.28125,-2.472656 -1.28125,-4.359375 0,-1.882813 0.425781,-3.332031 1.28125,-4.34375 0.851563,-1.019531 2.078125,-1.53125 3.671875,-1.53125 z m 0,1.546875 c -1.960938,0 -2.9375,1.445312 -2.9375,4.328125 0,2.886719 0.976562,4.328125 2.9375,4.328125 1.957031,0 2.9375,-1.441406 2.9375,-4.328125 0,-2.882813 -0.980469,-4.328125 -2.9375,-4.328125 z m 0,0"
           id="path184" />
      </g>
    </g>
  </g>
  <g
     fill="#ffa800"
     fill-opacity="1"
     id="g198"
     style="display:none">
    <g
       transform="translate(200.42451,235.5599)"
       id="g196">
      <g
         id="g194">
        <path
           d="m 4.796875,-11.734375 c 1.101563,0 1.992187,0.265625 2.671875,0.796875 C 8.15625,-10.40625 8.5,-9.691406 8.5,-8.796875 8.5,-7.773438 7.789062,-6.5 6.375,-4.96875 l -3.03125,3.203125 h 5.6875 V 0 H 0.75 v -1.4375 l 4.296875,-4.609375 c 0.9375,-0.957031 1.40625,-1.78125 1.40625,-2.46875 0,-0.46875 -0.171875,-0.832031 -0.515625,-1.09375 -0.34375,-0.269531 -0.820312,-0.40625 -1.421875,-0.40625 -1.0625,0 -2.125,0.492187 -3.1875,1.46875 L 0.546875,-10.0625 c 1.363281,-1.113281 2.78125,-1.671875 4.25,-1.671875 z m 0,0"
           id="path192" />
      </g>
    </g>
  </g>
  <g
     fill="#ffa800"
     fill-opacity="1"
     id="g206"
     style="display:none">
    <g
       transform="translate(213.54929,235.5599)"
       id="g204">
      <g
         id="g202">
        <path
           d="m 4.796875,-11.734375 c 1.101563,0 1.992187,0.265625 2.671875,0.796875 C 8.15625,-10.40625 8.5,-9.691406 8.5,-8.796875 8.5,-7.773438 7.789062,-6.5 6.375,-4.96875 l -3.03125,3.203125 h 5.6875 V 0 H 0.75 v -1.4375 l 4.296875,-4.609375 c 0.9375,-0.957031 1.40625,-1.78125 1.40625,-2.46875 0,-0.46875 -0.171875,-0.832031 -0.515625,-1.09375 -0.34375,-0.269531 -0.820312,-0.40625 -1.421875,-0.40625 -1.0625,0 -2.125,0.492187 -3.1875,1.46875 L 0.546875,-10.0625 c 1.363281,-1.113281 2.78125,-1.671875 4.25,-1.671875 z m 0,0"
           id="path200" />
      </g>
    </g>
  </g>
  <g
     id="g1426"
     inkscape:label="InvertedLogo"
     transform="matrix(3.9404553,0,0,3.9404553,-266.80965,-493.78365)"
     style="stroke-width:0.253779">
    <rect
       style="display:none;fill:#ffb000;fill-opacity:1;stroke-width:7.50003;stroke-linecap:square;stroke-linejoin:round;paint-order:markers fill stroke"
       id="rect1374"
       width="810"
       height="810"
       x="0"
       y="0"
       ry="0"
       transform="matrix(0.12688828,0,0,0.12688828,192.57901,133.30556)" />
    <path
       fill="#ffb000"
       d="m 231.53906,210.83203 -6.7539,3.90234 -6.75782,-3.90234 v -7.79687 l 6.75782,-3.90235 6.7539,3.90235 v 7.79687"
       fill-opacity="1"
       fill-rule="nonzero"
       id="path1376"
       style="fill:#ffb000;fill-opacity:1;stroke-width:1.27879" />
    <g
       clip-path="url(#38dbaf5151)"
       id="g1380"
       style="fill:#ffb000;fill-opacity:1;stroke-width:0.253779">
      <path
         fill="#ffb000"
         d="m 294.20703,154.54297 -6.75781,3.89844 -6.75391,-3.89844 v -7.80078 l 6.75391,-3.90235 6.75781,3.90235 v 7.80078"
         fill-opacity="1"
         fill-rule="nonzero"
         id="path1378"
         style="fill:#ffb000;fill-opacity:1;stroke-width:1.27879" />
    </g>
    <path
       fill="#ffb000"
       d="m 285.12109,202.86328 -4.42578,2.55469 -4.42578,-2.55469 v -5.10937 l 4.42578,-2.5586 4.42578,2.5586 v 5.10937"
       fill-opacity="1"
       fill-rule="nonzero"
       id="path1382"
       style="fill:#ffb000;fill-opacity:1;stroke-width:1.27879" />
    <g
       clip-path="url(#0d8d454e40)"
       id="g1386"
       style="fill:#ffb000;fill-opacity:1;stroke-width:0.253779">
      <path
         fill="#ffb000"
         d="m 275.28125,190.72656 v -22.92578 l -19.85156,-11.46094 -13.76563,7.94532 c -3.02734,1.75 -6.75781,1.75 -9.78906,0 l -0.0195,-0.0117 c -3.02735,-1.7461 -4.89063,-4.97657 -4.89063,-8.47657 v -12.13281 l -16.61718,-9.59375 -16.61719,9.59375 v 19.1875 l 16.61719,9.59375 10.54687,-6.08984 c 3.02734,-1.7461 6.75781,-1.7461 9.78516,0 3.03125,1.75 4.89453,4.98047 4.89453,8.47656 v 15.89453 l 14.5039,8.3711 c 2.57032,1.48437 4.15625,4.22656 4.15625,7.19921 0,2.96875 -1.58593,5.71094 -4.15625,7.19922 l -5.4414,3.14063 v 12.45703 l 10.79297,6.23047 10.78906,-6.23047 v -12.45703 l -5.44141,-3.14063 c -2.57031,-1.48437 -4.15625,-4.23047 -4.15625,-7.19922 0,-2.97265 1.58594,-5.71484 4.15625,-7.19921 l 14.50391,-8.3711"
         fill-opacity="1"
         fill-rule="nonzero"
         id="path1384"
         style="fill:#ffb000;fill-opacity:1;stroke-width:1.27879" />
    </g>
    <g
       clip-path="url(#8189ec933a)"
       id="g1390"
       style="fill:#000000;fill-opacity:1;stroke-width:0.253779">
      <path
         fill="#000000"
         d="m 253.23437,190.19141 h 3.78125 c 0.3125,-0.3711 0.58204,-0.7461 0.81641,-1.125 0.14063,-0.23047 0.26953,-0.46094 0.38281,-0.69141 h -6.17968 c 0.11328,0.23047 0.24218,0.46094 0.38281,0.69141 0.23437,0.3789 0.50781,0.7539 0.8164,1.125 z m 4.03125,0.40625 v 0.0469 h -0.043 c -0.54688,0.62891 -1.19532,1.24219 -1.96094,1.83203 l -0.13672,0.10938 -0.13672,-0.10938 c -1.29687,-1.0039 -2.27344,-2.07031 -2.95312,-3.17187 -0.96094,-1.55469 -1.32813,-3.16797 -1.1875,-4.75391 0.14453,-1.57812 0.79687,-3.12109 1.8789,-4.53906 0.56641,-0.74219 1.25,-1.44922 2.03906,-2.10547 0,0 0,0 0,-0.004 -0.42578,-0.32812 -0.88281,-0.64453 -1.36328,-0.94922 -0.12109,-0.0742 -0.24218,-0.14843 -0.36328,-0.22265 -0.29297,0.95703 -0.73047,1.83984 -1.26953,2.64062 -0.77344,1.14453 -1.75391,2.11328 -2.79297,2.85547 -1.04297,0.74219 -2.14844,1.26172 -3.16797,1.50781 -1.67187,0.40625 -3.125,0.0937 -3.75781,-1.125 -0.17969,-0.34375 -0.23437,-0.67187 -0.1875,-0.98828 0.0547,-0.39062 0.26172,-0.7539 0.57813,-1.07812 0.14062,-0.13672 0.29687,-0.26953 0.47265,-0.39844 -1.14062,-0.0586 -2.27734,-0.23437 -3.24609,-0.55469 -1.1211,-0.37109 -2.03125,-0.9375 -2.49219,-1.74218 -0.30078,-0.53125 -0.40625,-1.16016 -0.24609,-1.89454 0.0781,-0.35546 0.20703,-0.67578 0.38672,-0.96093 0.63281,-1.02344 1.85937,-1.625 3.42968,-1.85547 1.53125,-0.21875 3.39844,-0.0898 5.36328,0.34765 2.20704,0.48829 4.53125,1.36329 6.64454,2.55469 0.52343,-2.28515 0.14843,-4.96484 -1.8086,-7.82422 -0.0664,-0.0977 -0.0469,-0.22656 0.0508,-0.29297 l 0.0195,-0.0156 c 0.0977,-0.0703 0.23047,-0.0469 0.29688,0.0508 0.74219,1.08594 1.26953,2.14453 1.60937,3.17188 0.11329,-0.32032 0.29297,-0.60547 0.52735,-0.83985 0.40625,-0.41015 0.96484,-0.66406 1.58594,-0.66406 0.61718,0 1.17968,0.25391 1.58203,0.66406 0.30859,0.3086 0.52734,0.70703 0.61328,1.15235 0.33594,-1.125 0.88672,-2.28907 1.70703,-3.48438 0.0664,-0.0977 0.19922,-0.12109 0.29687,-0.0508 l 0.0234,0.0156 c 0.0937,0.0664 0.11328,0.19532 0.0508,0.29297 -1.95703,2.85938 -2.33593,5.53907 -1.80859,7.82422 2.10937,-1.1914 4.4375,-2.0664 6.64062,-2.55469 1.96485,-0.4375 3.83594,-0.5664 5.36719,-0.34765 1.57031,0.23047 2.79297,0.83203 3.42969,1.85547 0.17578,0.28515 0.30469,0.60547 0.38281,0.96093 0.16016,0.73438 0.0547,1.36329 -0.24609,1.89454 -0.46094,0.80468 -1.36719,1.37109 -2.49219,1.74218 -0.96875,0.32032 -2.10547,0.4961 -3.24219,0.55469 0.17188,0.12891 0.33203,0.26172 0.46875,0.39844 0.31641,0.32422 0.52735,0.6875 0.58203,1.07812 0.043,0.31641 -0.0117,0.64453 -0.1875,0.98828 -0.63671,1.21875 -2.08984,1.53125 -3.75781,1.125 -1.02344,-0.24609 -2.1289,-0.76562 -3.17187,-1.50781 -1.03907,-0.74219 -2.01953,-1.71094 -2.79297,-2.85547 -0.53906,-0.80078 -0.97656,-1.68359 -1.26563,-2.64062 -0.125,0.0742 -0.24609,0.14844 -0.36718,0.22265 -0.48047,0.30469 -0.9336,0.6211 -1.35938,0.94922 0,0.004 0,0.004 0,0.004 0.78906,0.66016 1.46875,1.36328 2.03516,2.10547 1.08593,1.41797 1.73828,2.96094 1.8789,4.53906 0.0352,0.39063 0.0391,0.77734 0.0117,1.16797 v 0.0391 h -0.004 c -0.0625,0.85938 -0.28516,1.72266 -0.67188,2.57422 v 0.0312 c 0,0.008 -0.008,0.0117 -0.0117,0.0117 -0.008,0 -0.0117,0.004 -0.0117,0.008 -0.14453,0.3086 -0.3125,0.61719 -0.5,0.92188 -0.26953,0.4375 -0.58593,0.86718 -0.94922,1.29297 z m -0.65234,0.0469 h -2.97656 c 0.43359,0.46484 0.92969,0.92188 1.48828,1.36719 0.5625,-0.44531 1.05469,-0.90235 1.48828,-1.36719 z m -3.21875,-17.21875 c 0.0781,1 -0.0117,1.95313 -0.23047,2.85156 0.16016,0.0937 0.31641,0.19141 0.47656,0.29297 0.52735,0.32813 1.02344,0.67578 1.48438,1.04297 0.46484,-0.36719 0.95703,-0.71484 1.48828,-1.04297 0.15625,-0.10156 0.31641,-0.19922 0.47656,-0.29297 -0.24218,-0.97265 -0.32812,-2.01953 -0.20703,-3.11328 -0.0781,0.11328 -0.16797,0.21875 -0.26562,0.31641 -0.40235,0.41015 -0.96485,0.66406 -1.58203,0.66406 -0.6211,0 -1.17969,-0.25391 -1.58594,-0.66406 -0.0195,-0.0195 -0.0391,-0.0352 -0.0547,-0.0547 z m -1.99609,5.69141 c 0.53515,-0.78907 0.96484,-1.66797 1.23828,-2.6211 -2.10156,-1.20312 -4.42578,-2.08203 -6.6211,-2.57031 -1.91406,-0.42578 -3.72656,-0.55078 -5.20703,-0.33984 -1.4414,0.21093 -2.55468,0.74218 -3.10937,1.64453 -0.15235,0.24609 -0.26172,0.51953 -0.32813,0.82031 -0.13672,0.61328 -0.0508,1.13281 0.19922,1.57031 0.39453,0.69922 1.21485,1.19922 2.23828,1.53907 1.05078,0.34765 2.3086,0.51562 3.54297,0.54687 0.0898,0.004 0.17969,0.004 0.26563,0.004 1.60156,-0.83985 3.9414,-1.26563 5.125,-1.09766 l 0.44922,0.0625 -0.32422,0.3241 c -0.71094,0.70703 -2.86328,1.16797 -5.14063,1.16406 -0.38281,0.21094 -0.71484,0.44531 -0.96094,0.69922 -0.2539,0.25781 -0.41796,0.53125 -0.45703,0.82031 -0.0312,0.22657 0.008,0.46094 0.14063,0.71485 0.52344,1.00781 1.78515,1.2539 3.2539,0.89453 0.96485,-0.23438 2.01954,-0.73047 3.01563,-1.4375 0.99609,-0.71094 1.9375,-1.64063 2.67969,-2.73828 z m -3.39063,-0.0859 c -0.90234,0.0195 -2.11328,0.25 -3.19531,0.64844 1.30859,-0.082 2.47656,-0.3125 3.19531,-0.64844 z m 9.16016,1.25781 c -0.5625,-0.73828 -1.2461,-1.4414 -2.04297,-2.09765 -0.79297,0.65625 -1.48047,1.35937 -2.04297,2.09765 -0.11719,0.15625 -0.23047,0.3125 -0.33984,0.47266 h 4.76562 c -0.10547,-0.16016 -0.21875,-0.31641 -0.33984,-0.47266 z m -4.71875,0.92578 c -0.41016,0.6836 -0.71875,1.38672 -0.91797,2.10547 h 7.19141 c -0.19922,-0.71875 -0.50782,-1.42187 -0.92188,-2.10547 z m -1.03125,2.5586 c -0.0547,0.27343 -0.0977,0.54687 -0.1211,0.82031 -0.0234,0.23437 -0.0312,0.47266 -0.0273,0.71094 h 7.71484 c 0,-0.23828 -0.008,-0.47657 -0.0273,-0.71094 -0.0273,-0.27344 -0.0664,-0.54688 -0.125,-0.82031 z m -0.12891,1.98437 c 0.0625,0.72266 0.23828,1.44531 0.53906,2.16406 h 6.59766 c 0.30078,-0.71875 0.47656,-1.4414 0.53516,-2.16406 z m 12.94922,-11.83203 c -2.19922,0.48828 -4.52344,1.36719 -6.62109,2.57031 0.27343,0.95313 0.70312,1.83203 1.23437,2.6211 0.74219,1.09765 1.6836,2.02734 2.6836,2.73828 0.99609,0.70703 2.04687,1.20312 3.01562,1.4375 1.46484,0.35937 2.73047,0.11328 3.25391,-0.89453 0.1289,-0.25391 0.17187,-0.48828 0.14062,-0.71485 -0.043,-0.28906 -0.20703,-0.5625 -0.45703,-0.82031 -0.25,-0.25391 -0.58203,-0.48828 -0.96484,-0.69922 -2.27735,0.004 -4.42969,-0.45703 -5.14063,-1.16406 l -0.32422,-0.32422 0.45313,-0.0625 c 1.18359,-0.16797 3.51953,0.25781 5.12109,1.09766 0.0899,0 0.17578,0 0.26563,-0.004 1.23828,-0.0312 2.49609,-0.19922 3.54687,-0.54687 1.01953,-0.33985 1.83985,-0.83985 2.23828,-1.53907 0.2461,-0.4375 0.33203,-0.95703 0.19922,-1.57031 -0.0664,-0.30078 -0.17969,-0.57422 -0.32812,-0.82031 -0.5586,-0.90235 -1.67188,-1.4336 -3.11328,-1.64453 -1.47657,-0.21094 -3.29297,-0.0859 -5.20313,0.33984 z m -1.99609,5.10547 c 0.71875,0.33594 1.88672,0.56641 3.19531,0.64844 -1.08203,-0.39844 -2.29297,-0.62891 -3.19531,-0.64844 z m -5.94141,-8.42188 c -0.32422,-0.32812 -0.77344,-0.52734 -1.26562,-0.52734 -0.4961,0 -0.94141,0.19922 -1.26563,0.52734 -0.32422,0.32813 -0.52734,0.77735 -0.52734,1.27735 0,0.49609 0.20312,0.94531 0.52734,1.27344 0.32422,0.32421 0.76953,0.52734 1.26563,0.52734 0.49218,0 0.9414,-0.20313 1.26562,-0.52734 0.32422,-0.32813 0.52344,-0.77735 0.52344,-1.27344 0,-0.5 -0.19922,-0.94922 -0.52344,-1.27735"
         fill-opacity="1"
         fill-rule="nonzero"
         id="path1388"
         style="fill:#000000;fill-opacity:1;stroke-width:1.27879" />
    </g>
    <path
       fill="#000000"
       d="m 217.01953,161.19531 c -0.59375,0 -1.09766,0.48047 -1.09766,1.10938 0,0.59765 0.47657,1.10937 1.09766,1.10937 0.62109,0 1.09375,-0.48047 1.09375,-1.10937 -0.0273,-0.60157 -0.50391,-1.10938 -1.09375,-1.10938 z m 0,0"
       fill-opacity="1"
       fill-rule="nonzero"
       id="path1392"
       style="fill:#000000;fill-opacity:1;stroke-width:1.27879" />
    <g
       clip-path="url(#52f9b72d4c)"
       id="g1396"
       style="fill:#000000;fill-opacity:1;stroke-width:0.253779">
      <path
         fill="#000000"
         d="m 221.51953,157.39062 c -0.62109,0 -1.125,0.50782 -1.125,1.13672 0,0.62891 0.50391,1.14063 1.125,1.14063 0.62109,0 1.125,-0.51172 1.125,-1.14063 0,-0.6289 -0.50391,-1.13672 -1.125,-1.13672 z m 0,0"
         fill-opacity="1"
         fill-rule="nonzero"
         id="path1394"
         style="fill:#000000;fill-opacity:1;stroke-width:1.27879" />
    </g>
    <path
       fill="#000000"
       d="m 217.01953,143.21484 c -0.59375,0 -1.09766,0.48047 -1.09766,1.10938 0,0.59765 0.47657,1.10937 1.09766,1.10937 0.58984,0 1.09375,-0.48047 1.09375,-1.08203 0,-0.6289 -0.50391,-1.13672 -1.09375,-1.13672 z m 0,0"
       fill-opacity="1"
       fill-rule="nonzero"
       id="path1398"
       style="fill:#000000;fill-opacity:1;stroke-width:1.27879" />
    <g
       clip-path="url(#199025995f)"
       id="g1402"
       style="fill:#000000;fill-opacity:1;stroke-width:0.253779">
      <path
         fill="#000000"
         d="m 205.88281,142.19531 c -1.45312,0 -2.69531,1.01953 -2.99219,2.45703 0,0.96094 0.29688,1.88672 0.85938,2.63672 0.50391,0.62891 1.18359,1.05078 1.98437,1.25781 0.17969,0.0312 0.26563,0.17969 0.26563,0.33204 -0.0273,0.17968 -0.17578,0.26953 -0.32422,0.26953 h -0.0898 c -0.80078,-0.21094 -1.53907,-0.66016 -2.10157,-1.25782 -0.5625,0.26954 -1.60156,0.92579 -1.6289,1.70704 0,0.17968 -0.11719,0.30078 -0.29688,0.30078 -0.14843,0 -0.29687,-0.15235 -0.29687,-0.30078 0.0586,-1.10938 1.24609,-1.85938 1.86719,-2.1875 -0.47266,-0.75 -0.74219,-1.58985 -0.76954,-2.48829 -1.57031,0 -2.84375,1.37891 -2.84375,3.08594 0,0.33203 0.0586,0.66016 0.14844,0.96094 0.0273,0.12109 0,0.26953 -0.12109,0.32812 -1.50781,0.92969 -2.39844,2.69922 -2.39844,4.61719 0,0.92578 0.20703,1.85547 0.65234,2.69531 0.0312,0.0586 0.0312,0.0898 0.0312,0.14844 v 0.0898 c 0,0.0625 0,0.12109 0,0.21093 0,2.48828 1.44922,4.55469 3.40625,5.06641 -0.0898,-1.01953 0.14844,-2.03906 0.64844,-2.90625 -0.88672,-0.36328 -1.6289,-1.05078 -2.04297,-1.91797 -0.0859,-0.15234 -0.0273,-0.33203 0.1211,-0.39062 0.14453,-0.0625 0.32422,-0.0312 0.38281,0.12109 0,0 0,0 0,0.0273 0.41406,0.75 1.06641,1.34766 1.86719,1.61719 l 0.0273,-0.0586 c 0.74219,-0.8086 1.75,-1.31641 2.84375,-1.46875 0.0898,-1.07813 0.76953,-2.00782 1.77734,-2.36719 0.14844,-0.0586 0.32813,0 0.38672,0.15234 0.0586,0.14844 0,0.32813 -0.14843,0.38672 -0.0312,0 -0.0312,0 -0.0586,0.0312 -0.0625,0.0312 -1.45312,0.53906 -1.36328,2.06641 0,0.17969 -0.11719,0.30078 -0.29687,0.30078 -0.0312,0 -1.66016,0.0898 -2.69532,1.28906 -0.67968,0.77735 -0.97656,1.85938 -0.88672,3.17578 0.0586,0 0.11719,0.0312 0.17579,0.0312 0.11718,0 0.20703,0.0586 0.26562,0.17969 0.83203,1.76563 2.90234,2.54688 4.67969,1.73828 1.24609,-0.57031 2.04297,-1.85937 2.04297,-3.23828 v -1.64844 c -1.65625,-0.35937 -2.69141,1.25782 -2.75391,1.34766 -0.0859,0.15234 -0.26562,0.17969 -0.41406,0.0898 -0.14844,-0.0898 -0.17578,-0.26953 -0.0898,-0.41797 0,-0.0312 1.2461,-1.97656 3.25782,-1.64843 v -5.96485 c -0.14453,-0.23828 -0.76953,-1.07812 -1.59766,-1.25781 -0.47266,-0.0898 -0.94922,0.0312 -1.33203,0.30078 -0.23828,0.30078 -1.53906,2.00781 -3.05078,2.2461 -0.11719,0.0312 -0.23828,0.0312 -0.35547,0.0312 -0.26563,0 -0.5625,-0.0586 -0.82813,-0.17969 -0.12109,0.6289 -0.65234,1.14062 -1.57031,1.52734 -0.0312,0 -0.0586,0.0312 -0.12109,0.0312 -0.17578,0 -0.29297,-0.12109 -0.29297,-0.30078 0,-0.11719 0.0586,-0.23828 0.17578,-0.26953 0.76953,-0.30078 1.18359,-0.6875 1.24609,-1.13672 0.0859,-0.75 -0.83203,-1.58984 -1.1875,-1.85937 -0.14843,-0.0898 -0.17578,-0.26954 -0.0859,-0.41797 0.0859,-0.15235 0.26562,-0.17969 0.41406,-0.0898 0,0 0.0273,0 0.0273,0.0273 0.0586,0.0312 1.09766,0.83984 1.36328,1.80078 0.32422,0.23828 0.71094,0.32812 1.125,0.26953 1.36329,-0.21094 2.69532,-2.03906 2.69532,-2.03906 0.0312,-0.0312 0.0586,-0.0586 0.0586,-0.0586 0.53516,-0.39062 1.21484,-0.57031 1.83594,-0.42187 0.5625,0.15234 1.09765,0.44922 1.48047,0.89844 v -4.70313 h -0.26563 c -1.98437,0 -2.78125,-1.76953 -2.78125,-1.76953 -0.0625,-0.14844 0,-0.32813 0.14453,-0.39063 0.14844,-0.0586 0.32813,0 0.38672,0.15235 0.47266,0.92969 1.45313,1.49609 2.48828,1.40625 v -1.13672 c 0,-1.73828 -1.36328,-3.11719 -3.05078,-3.11719 z m 0,0"
         fill-opacity="1"
         fill-rule="nonzero"
         id="path1400"
         style="fill:#000000;fill-opacity:1;stroke-width:1.27879" />
    </g>
    <g
       clip-path="url(#137345b198)"
       id="g1406"
       style="fill:#000000;fill-opacity:1;stroke-width:0.253779">
      <path
         fill="#000000"
         d="m 221.51953,146.69141 c -0.62109,0 -1.125,0.50781 -1.125,1.13671 0,0.62891 0.50391,1.14063 1.125,1.14063 0.62109,0 1.125,-0.51172 1.125,-1.14063 0,-0.6289 -0.50391,-1.13671 -1.125,-1.13671 z m 0,0"
         fill-opacity="1"
         fill-rule="nonzero"
         id="path1404"
         style="fill:#000000;fill-opacity:1;stroke-width:1.27879" />
    </g>
    <g
       clip-path="url(#9a2a250da5)"
       id="g1410"
       style="display:inline;fill:#000000;fill-opacity:1;stroke-width:0.253779">
      <path
         fill="#000000"
         d="m 221.51953,151.96484 c -0.62109,0 -1.125,0.50782 -1.125,1.14063 0,0.6289 0.50391,1.13672 1.125,1.13672 0.62109,0 1.125,-0.50782 1.125,-1.13672 0,-0.60156 -0.50391,-1.14063 -1.125,-1.14063 z m 0,0"
         fill-opacity="1"
         fill-rule="nonzero"
         id="path1408"
         style="fill:#000000;fill-opacity:1;stroke-width:1.27879" />
    </g>
    <g
       clip-path="url(#dd978cd11a)"
       id="g1414"
       style="display:inline;fill:#000000;fill-opacity:1;stroke-width:0.253779">
      <path
         fill="#000000"
         d="m 210.11719,168.29687 c -0.17578,0 -0.29688,-0.12109 -0.29688,-0.30078 v -29.36718 c 0,-0.17969 0.1211,-0.30079 0.29688,-0.30079 0.17968,0 0.29687,0.1211 0.29687,0.30079 v 29.36718 c 0,0.17969 -0.11719,0.30078 -0.29687,0.30078 z m 0,0"
         fill-opacity="1"
         fill-rule="nonzero"
         id="path1412"
         style="fill:#000000;fill-opacity:1;stroke-width:1.27879" />
    </g>
    <path
       fill="#000000"
       d="m 213.96875,148.81641 h -2.96094 c -0.17969,0 -0.29687,-0.11719 -0.29687,-0.29688 0,-0.17969 0.11718,-0.30078 0.29687,-0.30078 h 2.8125 l 2.19141,-2.9375 c 0.0898,-0.11719 0.29687,-0.14844 0.41406,-0.0586 0.11719,0.0898 0.14844,0.30078 0.0586,0.41796 l -2.30859,3.0586 c -0.0312,0.0898 -0.11719,0.11719 -0.20703,0.11719 z m 0,0"
       fill-opacity="1"
       fill-rule="nonzero"
       id="path1416"
       style="fill:#000000;fill-opacity:1;stroke-width:1.27879" />
    <path
       fill="#000000"
       d="m 216.27734,161.43359 c -0.0898,0 -0.17578,-0.0273 -0.23437,-0.11718 l -2.22266,-2.91016 h -2.8125 c -0.17969,0 -0.29687,-0.11719 -0.29687,-0.29688 0,-0.17968 0.11718,-0.30078 0.29687,-0.30078 h 2.96094 c 0.0898,0 0.17578,0.0312 0.23437,0.1211 l 2.3125,3.02734 c 0.0898,0.11719 0.0586,0.32813 -0.0586,0.41797 -0.0586,0.0312 -0.12109,0.0586 -0.17969,0.0586 z m 0,0"
       fill-opacity="1"
       fill-rule="nonzero"
       id="path1418"
       style="fill:#000000;fill-opacity:1;stroke-width:1.27879" />
    <path
       fill="#000000"
       d="m 220.07031,153.43359 h -9.0625 c -0.17969,0 -0.29687,-0.12109 -0.29687,-0.30078 0,-0.17969 0.11718,-0.30078 0.29687,-0.30078 h 9.0625 c 0.17578,0 0.29688,0.12109 0.29688,0.30078 0,0.17969 -0.14844,0.30078 -0.29688,0.30078 z m 0,0"
       fill-opacity="1"
       fill-rule="nonzero"
       id="path1420"
       style="fill:#000000;fill-opacity:1;stroke-width:1.27879" />
    <path
       fill="#000000"
       d="m 216.27734,151.03516 h -5.26953 c -0.17969,0 -0.29687,-0.1211 -0.29687,-0.30079 0,-0.17968 0.11718,-0.29687 0.29687,-0.29687 h 5.09375 l 2.04297,-2.78906 c 0.0586,-0.0898 0.14844,-0.11719 0.23828,-0.11719 h 1.6875 c 0.17578,0 0.29688,0.11719 0.29688,0.29687 0,0.17969 -0.1211,0.30079 -0.29688,0.30079 h -1.54297 l -2.01172,2.78515 c -0.0586,0.0937 -0.14843,0.1211 -0.23828,0.1211 z m 0,0"
       fill-opacity="1"
       fill-rule="nonzero"
       id="path1422"
       style="fill:#000000;fill-opacity:1;stroke-width:1.27879" />
    <path
       fill="#000000"
       d="m 220.07031,158.82812 h -1.6875 c -0.0898,0 -0.17969,-0.0625 -0.23828,-0.12109 l -2.04297,-2.78516 h -5.09375 c -0.17969,0 -0.29687,-0.12109 -0.29687,-0.30078 0,-0.17968 0.11718,-0.30078 0.29687,-0.30078 H 216.25 c 0.0859,0 0.17578,0.0312 0.23437,0.1211 l 2.04297,2.78515 h 1.54297 c 0.17578,0 0.29688,0.1211 0.29688,0.30078 0,0.17969 -0.1211,0.30078 -0.29688,0.30078 z m 0,0"
       fill-opacity="1"
       fill-rule="nonzero"
       id="path1424"
       style="fill:#000000;fill-opacity:1;stroke-width:1.27879" />
    <g
       aria-label="GUH 2022"
       transform="matrix(0.19033334,0,0,0.19033334,68.873652,142.34101)"
       id="text3179"
       style="font-size:128px;line-height:0.9;font-family:Noir;-inkscape-font-specification:Noir;white-space:pre;shape-inside:url(#rect3181);fill:#ffb000;stroke-width:5;stroke-linecap:square;stroke-linejoin:round;paint-order:markers fill stroke">
      <path
         d="m 83.251776,205.68611 q -0.954546,-3.31819 -2.681819,-5.86364 -1.727272,-2.59091 -4.227272,-4.36364 -2.454546,-1.81818 -5.636364,-2.77272 -3.136364,-0.95455 -6.954545,-0.95455 -7.136364,0 -12.545455,3.54545 -5.363636,3.54546 -8.363636,10.31819 -3,6.72727 -3,16.45454 0,9.72727 2.954545,16.54546 2.954546,6.81818 8.363636,10.40909 5.409091,3.54545 12.772728,3.54545 6.681818,0 11.409091,-2.36363 4.772727,-2.4091 7.272727,-6.77273 2.545454,-4.36364 2.545454,-10.31818 l 4,0.59091 h -24 v -14.81819 h 38.954544 v 11.72728 q 0,12.27272 -5.181816,21.09091 -5.181818,8.77272 -14.272728,13.54545 -9.090909,4.72727 -20.818181,4.72727 -13.090909,0 -23,-5.77272 -9.909091,-5.81819 -15.454546,-16.5 -5.5,-10.72728 -5.5,-25.45455 0,-11.31818 3.272727,-20.18182 3.318182,-8.90909 9.272728,-15.09091 5.954545,-6.18182 13.863636,-9.40909 7.909091,-3.22727 17.136364,-3.22727 7.909091,0 14.727272,2.31818 6.818182,2.27273 12.09091,6.45455 5.318181,4.18181 8.681818,9.95454 3.363636,5.72727 4.318186,12.63637 z"
         style="font-weight:bold;font-family:Inter;-inkscape-font-specification:'Inter Bold'"
         id="path412" />
      <path
         d="m 176.38803,175.5952 h 19.68182 v 60.45454 q 0,10.18182 -4.86364,17.81818 -4.81818,7.63637 -13.5,11.90909 -8.68182,4.22728 -20.22727,4.22728 -11.59091,0 -20.27273,-4.22728 -8.68182,-4.27272 -13.5,-11.90909 -4.81818,-7.63636 -4.81818,-17.81818 V 175.5952 h 19.68182 v 58.77272 q 0,5.31819 2.31818,9.45455 2.36363,4.13636 6.63636,6.5 4.27273,2.36364 9.95455,2.36364 5.72727,0 9.95454,-2.36364 4.27273,-2.36364 6.59091,-6.5 2.36364,-4.13636 2.36364,-9.45455 z"
         style="font-weight:bold;font-family:Inter;-inkscape-font-specification:'Inter Bold'"
         id="path414" />
      <path
         d="M 212.25155,268.68611 V 175.5952 h 19.68182 v 38.40909 h 39.95455 V 175.5952 h 19.63636 v 93.09091 h -19.63636 v -38.45455 h -39.95455 v 38.45455 z"
         style="font-weight:bold;font-family:Inter;-inkscape-font-specification:'Inter Bold'"
         id="path416" />
      <path
         d="m 336.88798,268.68611 v -14.18182 l 33.13637,-30.68182 q 4.22727,-4.09091 7.09091,-7.36364 2.90909,-3.27272 4.40909,-6.40909 1.5,-3.18182 1.5,-6.86363 0,-4.09091 -1.86364,-7.04546 -1.86364,-3 -5.09091,-4.59091 -3.22727,-1.63636 -7.31818,-1.63636 -4.27273,0 -7.45455,1.72727 -3.18181,1.72727 -4.90909,4.95455 -1.72727,3.22727 -1.72727,7.68181 h -18.68182 q 0,-9.13636 4.13637,-15.86363 4.13636,-6.72727 11.59091,-10.40909 7.45454,-3.68182 17.18181,-3.68182 10,0 17.40909,3.54545 7.45455,3.5 11.59091,9.72728 4.13637,6.22727 4.13637,14.27272 0,5.27273 -2.09091,10.40909 -2.04546,5.13637 -7.31818,11.4091 -5.27273,6.22727 -14.86364,14.95454 l -13.59091,13.31818 v 0.63637 h 39.09091 v 16.09091 z"
         style="font-weight:bold;font-family:Inter;-inkscape-font-specification:'Inter Bold'"
         id="path418" />
      <path
         d="m 454.02446,270.73156 q -11.72727,-0.0455 -20.18182,-5.77273 -8.40909,-5.72727 -12.95455,-16.59091 -4.5,-10.86363 -4.45454,-26.13636 0,-15.22727 4.5,-25.95455 4.54545,-10.72727 12.95454,-16.31818 8.45455,-5.63636 20.13637,-5.63636 11.68182,0 20.09091,5.63636 8.45454,5.63637 13,16.36364 4.54545,10.68182 4.5,25.90909 0,15.31818 -4.54546,26.18182 -4.5,10.86363 -12.90909,16.59091 -8.40909,5.72727 -20.13636,5.72727 z m 0,-16.31818 q 8,0 12.77273,-8.04546 4.77272,-8.04545 4.72727,-24.13636 0,-10.59091 -2.18182,-17.63636 -2.13636,-7.04546 -6.09091,-10.59091 -3.90909,-3.54546 -9.22727,-3.54546 -7.95455,0 -12.72727,7.95455 -4.77273,7.95454 -4.81819,23.81818 0,10.72727 2.13637,17.90909 2.18182,7.13636 6.13636,10.72727 3.95455,3.54546 9.27273,3.54546 z"
         style="font-weight:bold;font-family:Inter;-inkscape-font-specification:'Inter Bold'"
         id="path420" />
      <path
         d="m 505.61528,268.68611 v -14.18182 l 33.13636,-30.68182 q 4.22728,-4.09091 7.09091,-7.36364 2.90909,-3.27272 4.40909,-6.40909 1.5,-3.18182 1.5,-6.86363 0,-4.09091 -1.86363,-7.04546 -1.86364,-3 -5.09091,-4.59091 -3.22728,-1.63636 -7.31818,-1.63636 -4.27273,0 -7.45455,1.72727 -3.18182,1.72727 -4.90909,4.95455 -1.72727,3.22727 -1.72727,7.68181 h -18.68182 q 0,-9.13636 4.13636,-15.86363 4.13637,-6.72727 11.59091,-10.40909 7.45455,-3.68182 17.18182,-3.68182 10,0 17.40909,3.54545 7.45455,3.5 11.59091,9.72728 4.13636,6.22727 4.13636,14.27272 0,5.27273 -2.09091,10.40909 -2.04545,5.13637 -7.31818,11.4091 -5.27273,6.22727 -14.86363,14.95454 l -13.59091,13.31818 v 0.63637 h 39.09091 v 16.09091 z"
         style="font-weight:bold;font-family:Inter;-inkscape-font-specification:'Inter Bold'"
         id="path422" />
      <path
         d="m 586.25175,268.68611 v -14.18182 l 33.13637,-30.68182 q 4.22727,-4.09091 7.09091,-7.36364 2.90909,-3.27272 4.40909,-6.40909 1.5,-3.18182 1.5,-6.86363 0,-4.09091 -1.86364,-7.04546 -1.86364,-3 -5.09091,-4.59091 -3.22727,-1.63636 -7.31818,-1.63636 -4.27273,0 -7.45455,1.72727 -3.18181,1.72727 -4.90909,4.95455 -1.72727,3.22727 -1.72727,7.68181 h -18.68182 q 0,-9.13636 4.13637,-15.86363 4.13636,-6.72727 11.59091,-10.40909 7.45454,-3.68182 17.18181,-3.68182 10,0 17.40909,3.54545 7.45455,3.5 11.59091,9.72728 4.13637,6.22727 4.13637,14.27272 0,5.27273 -2.09091,10.40909 -2.04546,5.13637 -7.31818,11.4091 -5.27273,6.22727 -14.86364,14.95454 l -13.59091,13.31818 v 0.63637 h 39.09091 v 16.09091 z"
         style="font-weight:bold;font-family:Inter;-inkscape-font-specification:'Inter Bold'"
         id="path424" />
    </g>
  </g>
</svg>
